<mxfile host="app.diagrams.net" modified="2020-05-19T15:06:05.173Z" agent="5.0 (Windows NT 10.0; Win64; x64) AppleWebKit/537.36 (KHTML, like Gecko) Chrome/81.0.4044.138 Safari/537.36" etag="DH8xPGY17kEg0prQXlAm" version="13.1.3" type="github">
  <diagram id="nvE_FC1WQhCISzRiT7xm" name="Pagina-1">
    <mxGraphModel dx="474" dy="265" grid="1" gridSize="10" guides="1" tooltips="1" connect="1" arrows="1" fold="1" page="1" pageScale="1" pageWidth="827" pageHeight="1169" math="0" shadow="0">
      <root>
        <mxCell id="0" />
        <mxCell id="1" parent="0" />
        <mxCell id="9D8aGhp-CKfr7X2Opcz3-1" value="" style="rounded=1;whiteSpace=wrap;html=1;" parent="1" vertex="1">
          <mxGeometry x="242.5" y="18.5" width="250" height="151.5" as="geometry" />
        </mxCell>
        <mxCell id="9D8aGhp-CKfr7X2Opcz3-6" value="" style="endArrow=classic;html=1;entryX=0.5;entryY=1;entryDx=0;entryDy=0;" parent="1" edge="1">
          <mxGeometry width="50" height="50" relative="1" as="geometry">
            <mxPoint x="367.80282174810725" y="417" as="sourcePoint" />
            <mxPoint x="367.5" y="307" as="targetPoint" />
          </mxGeometry>
        </mxCell>
        <mxCell id="9D8aGhp-CKfr7X2Opcz3-7" value="ETL" style="text;html=1;align=center;verticalAlign=middle;resizable=0;points=[];autosize=1;" parent="1" vertex="1">
          <mxGeometry x="369.29999999999995" y="356" width="40" height="20" as="geometry" />
        </mxCell>
        <mxCell id="9D8aGhp-CKfr7X2Opcz3-8" value="Data lake&lt;br&gt;(Document store)" style="text;html=1;align=center;verticalAlign=middle;resizable=0;points=[];autosize=1;" parent="1" vertex="1">
          <mxGeometry x="409.29999999999995" y="262" width="110" height="30" as="geometry" />
        </mxCell>
        <mxCell id="9D8aGhp-CKfr7X2Opcz3-9" value="CSV Files" style="text;html=1;align=center;verticalAlign=middle;resizable=0;points=[];autosize=1;" parent="1" vertex="1">
          <mxGeometry x="401.5" y="427" width="70" height="20" as="geometry" />
        </mxCell>
        <mxCell id="9D8aGhp-CKfr7X2Opcz3-10" value="" style="endArrow=classic;html=1;exitX=0.5;exitY=1;exitDx=0;exitDy=0;entryX=0.5;entryY=0;entryDx=0;entryDy=0;" parent="1" source="9D8aGhp-CKfr7X2Opcz3-1" edge="1">
          <mxGeometry width="50" height="50" relative="1" as="geometry">
            <mxPoint x="318.5" y="157" as="sourcePoint" />
            <mxPoint x="367.5" y="247" as="targetPoint" />
          </mxGeometry>
        </mxCell>
        <mxCell id="9D8aGhp-CKfr7X2Opcz3-11" value="TEDx by Text" style="outlineConnect=0;dashed=0;verticalLabelPosition=bottom;verticalAlign=top;align=center;html=1;fontSize=12;fontStyle=0;aspect=fixed;shape=mxgraph.aws4.resourceIcon;resIcon=mxgraph.aws4.lambda_function;strokeColor=#FF9854;" parent="1" vertex="1">
          <mxGeometry x="260" y="30" width="40" height="40" as="geometry" />
        </mxCell>
        <mxCell id="9D8aGhp-CKfr7X2Opcz3-12" value="TEDx by City" style="outlineConnect=0;fontColor=#232F3E;gradientColor=none;strokeColor=#FF9854;fillColor=#ffffff;dashed=0;verticalLabelPosition=bottom;verticalAlign=top;align=center;html=1;fontSize=12;fontStyle=0;aspect=fixed;shape=mxgraph.aws4.resourceIcon;resIcon=mxgraph.aws4.lambda_function;" parent="1" vertex="1">
          <mxGeometry x="347.5" y="30" width="40" height="40" as="geometry" />
        </mxCell>
        <mxCell id="9D8aGhp-CKfr7X2Opcz3-14" value="" style="endArrow=classic;startArrow=classic;html=1;entryX=0;entryY=0.5;entryDx=0;entryDy=0;" parent="1" source="9D8aGhp-CKfr7X2Opcz3-15" edge="1">
          <mxGeometry width="50" height="50" relative="1" as="geometry">
            <mxPoint x="572.5" y="98.5" as="sourcePoint" />
            <mxPoint x="702.5" y="89" as="targetPoint" />
          </mxGeometry>
        </mxCell>
        <mxCell id="9D8aGhp-CKfr7X2Opcz3-15" value="" style="outlineConnect=0;dashed=0;verticalLabelPosition=bottom;verticalAlign=top;align=center;html=1;shape=mxgraph.aws3.api_gateway;fillColor=#D9A741;gradientColor=none;" parent="1" vertex="1">
          <mxGeometry x="510" y="55" width="60" height="67" as="geometry" />
        </mxCell>
        <mxCell id="9D8aGhp-CKfr7X2Opcz3-16" value="" style="dashed=0;outlineConnect=0;html=1;align=center;labelPosition=center;verticalLabelPosition=bottom;verticalAlign=top;shape=mxgraph.weblogos.github" parent="1" vertex="1">
          <mxGeometry x="87.5" y="207" width="75" height="75" as="geometry" />
        </mxCell>
        <mxCell id="9D8aGhp-CKfr7X2Opcz3-17" value="Source Code&lt;br&gt;Repository" style="text;html=1;align=center;verticalAlign=middle;resizable=0;points=[];autosize=1;" parent="1" vertex="1">
          <mxGeometry x="80" y="292" width="90" height="30" as="geometry" />
        </mxCell>
        <mxCell id="9D8aGhp-CKfr7X2Opcz3-18" value="" style="endArrow=classic;html=1;dashed=1;" parent="1" target="9D8aGhp-CKfr7X2Opcz3-17" edge="1">
          <mxGeometry width="50" height="50" relative="1" as="geometry">
            <mxPoint x="124.5" y="391" as="sourcePoint" />
            <mxPoint x="124.5" y="341" as="targetPoint" />
          </mxGeometry>
        </mxCell>
        <mxCell id="9D8aGhp-CKfr7X2Opcz3-19" value="Push" style="text;html=1;align=center;verticalAlign=middle;resizable=0;points=[];autosize=1;" parent="1" vertex="1">
          <mxGeometry x="130" y="356" width="40" height="20" as="geometry" />
        </mxCell>
        <mxCell id="9D8aGhp-CKfr7X2Opcz3-21" value="" style="endArrow=classic;startArrow=classic;html=1;exitX=0.5;exitY=0;exitDx=0;exitDy=0;exitPerimeter=0;" parent="1" edge="1">
          <mxGeometry width="50" height="50" relative="1" as="geometry">
            <mxPoint x="739.5" y="187" as="sourcePoint" />
            <mxPoint x="739.5" y="125.99999999999989" as="targetPoint" />
          </mxGeometry>
        </mxCell>
        <mxCell id="9D8aGhp-CKfr7X2Opcz3-22" value="" style="endArrow=classic;html=1;dashed=1;entryX=0.5;entryY=1;entryDx=0;entryDy=0;" parent="1" source="9D8aGhp-CKfr7X2Opcz3-16" target="9D8aGhp-CKfr7X2Opcz3-24" edge="1">
          <mxGeometry width="50" height="50" relative="1" as="geometry">
            <mxPoint x="130.5" y="187" as="sourcePoint" />
            <mxPoint x="130.41071428571433" y="107" as="targetPoint" />
          </mxGeometry>
        </mxCell>
        <mxCell id="9D8aGhp-CKfr7X2Opcz3-23" style="edgeStyle=orthogonalEdgeStyle;rounded=0;orthogonalLoop=1;jettySize=auto;html=1;dashed=1;" parent="1" source="9D8aGhp-CKfr7X2Opcz3-24" edge="1">
          <mxGeometry relative="1" as="geometry">
            <mxPoint x="237.5" y="97" as="targetPoint" />
          </mxGeometry>
        </mxCell>
        <mxCell id="9D8aGhp-CKfr7X2Opcz3-24" value="CI/CD" style="rounded=0;whiteSpace=wrap;html=1;" parent="1" vertex="1">
          <mxGeometry x="92.5" y="77" width="65" height="40" as="geometry" />
        </mxCell>
        <mxCell id="MkS0YqoIZinDnjFJ3MnW-2" value="" style="image;html=1;labelBackgroundColor=#ffffff;image=img/lib/clip_art/people/Suit_Man_Green_128x128.png;strokeColor=#FF9854;fillColor=#1CACFF;" parent="1" vertex="1">
          <mxGeometry x="711.75" y="190" width="55.5" height="50" as="geometry" />
        </mxCell>
        <mxCell id="MkS0YqoIZinDnjFJ3MnW-3" value="" style="image;html=1;labelBackgroundColor=#ffffff;image=img/lib/clip_art/people/Suit_Man_Black_128x128.png;strokeColor=#FF9854;fillColor=#1CACFF;" parent="1" vertex="1">
          <mxGeometry x="684.5" y="190" width="55.5" height="60" as="geometry" />
        </mxCell>
        <mxCell id="MkS0YqoIZinDnjFJ3MnW-9" value="" style="image;html=1;labelBackgroundColor=#ffffff;image=img/lib/clip_art/people/Worker_Woman_128x128.png;strokeColor=#FF9854;fillColor=#1CACFF;" parent="1" vertex="1">
          <mxGeometry x="740" y="190" width="60" height="58" as="geometry" />
        </mxCell>
        <mxCell id="MkS0YqoIZinDnjFJ3MnW-10" value="" style="image;html=1;labelBackgroundColor=#ffffff;image=img/lib/clip_art/general/Full_Folder_128x128.png;strokeColor=#FF9854;fillColor=#1CACFF;" parent="1" vertex="1">
          <mxGeometry x="329.3" y="420" width="80" height="80" as="geometry" />
        </mxCell>
        <mxCell id="MkS0YqoIZinDnjFJ3MnW-11" value="" style="image;html=1;labelBackgroundColor=#ffffff;image=img/lib/clip_art/computers/Database_128x128.png;strokeColor=#FF9854;fillColor=#1CACFF;" parent="1" vertex="1">
          <mxGeometry x="336.25" y="252" width="62.5" height="50" as="geometry" />
        </mxCell>
        <mxCell id="MkS0YqoIZinDnjFJ3MnW-14" value="" style="image;html=1;labelBackgroundColor=#ffffff;image=img/lib/clip_art/telecommunication/iPhone_128x128.png;strokeColor=#FF9854;fillColor=#1CACFF;" parent="1" vertex="1">
          <mxGeometry x="699.5" y="42" width="80" height="80" as="geometry" />
        </mxCell>
        <mxCell id="H9Yot8qHklOEiY-EzxRX-1" value="TEDx by State" style="outlineConnect=0;fontColor=#232F3E;gradientColor=none;strokeColor=#FF9854;fillColor=#ffffff;dashed=0;verticalLabelPosition=bottom;verticalAlign=top;align=center;html=1;fontSize=12;fontStyle=0;aspect=fixed;shape=mxgraph.aws4.resourceIcon;resIcon=mxgraph.aws4.lambda_function;" parent="1" vertex="1">
          <mxGeometry x="430" y="30" width="40" height="40" as="geometry" />
        </mxCell>
        <mxCell id="H9Yot8qHklOEiY-EzxRX-2" value="TEDx By Area" style="outlineConnect=0;dashed=0;verticalLabelPosition=bottom;verticalAlign=top;align=center;html=1;fontSize=12;fontStyle=0;aspect=fixed;shape=mxgraph.aws4.resourceIcon;resIcon=mxgraph.aws4.lambda_function;strokeColor=#FF9854;" parent="1" vertex="1">
          <mxGeometry x="260" y="100" width="40" height="40" as="geometry" />
        </mxCell>
        <mxCell id="H9Yot8qHklOEiY-EzxRX-7" value="TEDx Top 10" style="outlineConnect=0;dashed=0;verticalLabelPosition=bottom;verticalAlign=top;align=center;html=1;fontSize=12;fontStyle=0;aspect=fixed;shape=mxgraph.aws4.resourceIcon;resIcon=mxgraph.aws4.lambda_function;strokeColor=#FF9854;" parent="1" vertex="1">
          <mxGeometry x="347.5" y="100" width="40" height="40" as="geometry" />
        </mxCell>
        <mxCell id="H9Yot8qHklOEiY-EzxRX-8" value="TEDx Best" style="outlineConnect=0;dashed=0;verticalLabelPosition=bottom;verticalAlign=top;align=center;html=1;fontSize=12;fontStyle=0;aspect=fixed;shape=mxgraph.aws4.resourceIcon;resIcon=mxgraph.aws4.lambda_function;strokeColor=#FF9854;" parent="1" vertex="1">
          <mxGeometry x="430" y="100" width="40" height="40" as="geometry" />
        </mxCell>
      </root>
    </mxGraphModel>
  </diagram>
</mxfile>
